<?xml version="1.0" standalone="no"?>
<!DOCTYPE svg PUBLIC "-//W3C//DTD SVG 20010904//EN"
 "http://www.w3.org/TR/2001/REC-SVG-20010904/DTD/svg10.dtd">
<svg version="1.0" xmlns="http://www.w3.org/2000/svg"
 width="370.000000pt" height="320.000000pt" viewBox="0 0 370.000000 320.000000"
 preserveAspectRatio="xMidYMid meet">

<g transform="translate(0.000000,320.000000) scale(0.100000,-0.100000)"
fill="#000000" stroke="none">
<path d="M1742 2899 c-84 -11 -121 -23 -222 -75 -162 -83 -237 -162 -307 -324
-80 -186 -75 -413 14 -590 29 -57 61 -98 133 -171 80 -80 109 -103 184 -140
l90 -44 205 0 206 0 85 41 c168 80 317 256 364 430 22 80 31 254 17 329 -27
147 -120 305 -230 391 -153 120 -355 178 -539 153z m220 -54 c94 -20 193 -64
263 -117 60 -45 152 -162 193 -243 129 -258 38 -609 -204 -781 -35 -25 -103
-62 -151 -82 l-88 -37 -145 1 c-141 1 -147 2 -214 33 -199 91 -306 202 -379
393 -29 77 -31 92 -31 208 0 109 4 134 26 197 36 101 69 153 150 239 80 84
137 125 217 155 124 47 249 59 363 34z"/>
<path d="M1558 2586 c-64 -52 -128 -123 -128 -143 0 -7 37 -52 81 -98 l82 -85
103 0 104 0 0 93 0 92 -93 93 -94 93 -55 -45z"/>
<path d="M1971 2538 l-91 -92 0 -93 0 -93 104 0 103 0 77 80 c52 55 76 87 76
104 0 17 -22 47 -67 94 -105 107 -96 107 -202 0z"/>
<path d="M1630 2161 c-54 -11 -72 -25 -140 -100 l-62 -71 36 -42 c65 -75 144
-140 164 -134 11 4 54 42 96 86 l78 80 -3 84 c-2 46 -7 88 -12 92 -10 11 -115
14 -157 5z"/>
<path d="M1890 2144 c-6 -14 -10 -58 -10 -98 l0 -72 84 -82 c46 -45 89 -82 96
-82 17 0 133 103 167 147 l26 34 -74 76 c-41 41 -88 81 -106 89 -18 8 -64 14
-103 14 -66 0 -71 -1 -80 -26z"/>
<path d="M1650 1419 c0 -21 175 -349 185 -349 13 0 55 70 138 233 l65 127
-194 0 c-139 0 -194 -3 -194 -11z"/>
<path d="M136 728 c-8 -30 -8 -216 0 -245 l6 -23 239 0 239 0 0 145 0 145
-239 0 -239 0 -6 -22z m434 -116 c0 -55 -4 -92 -12 -100 -8 -8 -61 -12 -170
-12 -155 0 -159 1 -183 25 -21 20 -25 34 -25 84 0 97 -14 91 201 91 l189 0 0
-88z"/>
<path d="M1303 740 c-27 -28 -3 -40 82 -40 81 0 109 10 88 31 -15 15 -156 23
-170 9z"/>
<path d="M1540 740 c-12 -7 -16 -36 -18 -132 -3 -126 4 -156 32 -145 12 5 16
21 16 70 0 35 3 85 6 110 l6 45 112 8 c90 7 111 12 114 25 2 12 -7 18 -35 23
-58 9 -216 7 -233 -4z"/>
<path d="M1928 743 c-30 -5 -38 -27 -12 -37 9 -3 114 -6 235 -6 189 0 220 2
226 15 3 9 2 19 -2 23 -7 8 -403 12 -447 5z"/>
<path d="M2498 744 c-22 -7 -23 -30 -2 -38 9 -3 95 -6 193 -6 224 0 226 -1
219 -105 -3 -39 -8 -77 -12 -83 -5 -8 -57 -12 -171 -12 -183 0 -195 4 -195 65
0 35 -24 69 -44 62 -7 -2 -12 -36 -14 -85 l-3 -82 252 0 251 0 -4 134 c-1 74
-6 137 -9 140 -7 8 -439 17 -461 10z"/>
<path d="M3071 740 c-19 -9 -21 -13 -11 -25 19 -23 468 -22 477 0 3 9 2 19 -2
23 -11 11 -437 13 -464 2z"/>
<path d="M724 729 c-14 -23 26 -29 198 -29 194 0 231 -7 226 -43 -3 -22 -5
-22 -213 -28 -116 -3 -211 -7 -212 -7 -7 -5 -1 -139 6 -151 14 -23 41 -5 41
27 0 16 3 44 6 61 l7 31 75 0 c65 0 80 -3 108 -25 18 -14 35 -25 38 -25 3 0
32 -16 65 -35 61 -36 130 -50 138 -28 2 6 -11 19 -29 27 -37 18 -92 65 -84 73
2 3 29 8 58 12 l53 6 3 49 c2 27 1 60 -3 73 l-5 23 -235 0 c-161 0 -236 -3
-241 -11z"/>
<path d="M1890 576 c0 -79 9 -116 30 -116 13 0 19 13 26 57 11 71 11 71 202
72 153 1 182 -6 182 -43 0 -52 12 -86 31 -86 17 0 19 9 19 85 l0 85 -245 0
-245 0 0 -54z"/>
<path d="M3076 623 l-28 -5 4 -69 c6 -112 44 -122 55 -15 l6 57 174 -3 c194
-3 204 -7 201 -73 -1 -40 8 -55 33 -55 17 0 19 8 19 85 l0 85 -217 -1 c-120
-1 -231 -4 -247 -6z"/>
</g>
</svg>
